<?xml version="1.0" encoding="UTF-8"?>
<svg version="1.1" xmlns="http://www.w3.org/2000/svg" width="512" height="512">
<path d="M0 0 C15.99167316 11.87952863 30.3782794 25.39091337 42.734375 41.03125 C43.36601562 41.79566406 43.99765625 42.56007812 44.6484375 43.34765625 C77.09023399 82.79848284 122.84608106 152.71874972 122.0703125 205.23828125 C119.02392973 230.56576594 92.29072485 258.43290325 76.3046875 277.02734375 C73.07599032 280.80069957 69.93727393 284.64289333 66.8046875 288.49609375 C64.46756351 291.35796822 62.10136447 294.19403162 59.734375 297.03125 C60.87914307 297.0405957 62.02391113 297.04994141 63.20336914 297.05957031 C67.4734508 297.09961199 71.7428227 297.16540952 76.01245117 297.23876953 C77.85610803 297.26689722 79.69988363 297.28815239 81.54370117 297.30224609 C84.20292597 297.32378991 86.86073534 297.3704967 89.51953125 297.421875 C90.33647964 297.42310364 91.15342804 297.42433228 91.99513245 297.42559814 C98.77522735 297.59693928 103.15426124 299.45113624 108.046875 304.34375 C111.54377139 309.91288129 111.87163175 315.00140168 111.80566406 321.40209961 C111.58024017 329.30184925 111.58024017 329.30184925 114.33984375 336.43359375 C116.48768479 338.0259608 116.48768479 338.0259608 118.94921875 339.37890625 C150.90815793 358.33911841 165.87783621 406.69233258 174.609375 439.96875 C177.46153338 451.23269105 179.77880758 462.57979165 181.734375 474.03125 C181.92773438 475.12695312 182.12109375 476.22265625 182.3203125 477.3515625 C183.05981225 482.13738164 183.48775546 486.38098804 181.421875 490.90625 C179.734375 493.03125 179.734375 493.03125 176.734375 495.03125 C174.19523263 495.22659246 171.76589118 495.3047004 169.22644234 495.29131222 C168.45120364 495.29511789 167.67596494 495.29892356 166.87723416 495.30284455 C164.25802496 495.31321872 161.63903014 495.30924351 159.01980591 495.30540466 C157.13161947 495.30985391 155.2434349 495.31516691 153.3552531 495.32127339 C148.14974912 495.33550135 142.94430471 495.33711577 137.73878407 495.33667648 C132.13131417 495.33832046 126.52386912 495.35137902 120.91641235 495.36286926 C108.64805086 495.38575017 96.37970663 495.39364305 84.11132669 495.39869571 C76.45590741 495.40194885 68.80049318 495.40846895 61.14507675 495.4156971 C39.96328177 495.4352663 18.78149162 495.45175017 -2.40031242 495.45457363 C-3.41690121 495.45471472 -3.41690121 495.45471472 -4.45402715 495.45485866 C-7.20065261 495.45523715 -9.94727807 495.45560115 -12.69390353 495.45596164 C-14.76126772 495.45623336 -16.82863191 495.45651004 -18.89599609 495.45678711 C-19.57913159 495.45687513 -20.26226709 495.45696315 -20.96610367 495.45705384 C-42.4356135 495.45995996 -63.90503333 495.48206082 -85.37451172 495.51831055 C-109.48305288 495.55901491 -133.59151617 495.58271243 -157.70010006 495.58303314 C-170.46976117 495.58361873 -183.23930645 495.59217577 -196.00893784 495.62103081 C-206.88014526 495.64548251 -217.75119463 495.65286964 -228.62242208 495.63778328 C-234.17240831 495.63058915 -239.72208204 495.63157932 -245.27203369 495.65419388 C-250.34868959 495.67468235 -255.42479072 495.67227883 -260.50143994 495.65131903 C-262.34194259 495.64780465 -264.18248445 495.6528158 -266.02293561 495.66702347 C-268.5179745 495.68504917 -271.01103326 495.67249489 -273.50601006 495.65207577 C-274.22680766 495.66463914 -274.94760526 495.67720251 -275.69024521 495.6901466 C-279.5823384 495.62158627 -281.14409747 495.13162494 -284.18810093 492.61744839 C-287.56217681 488.41724212 -287.56723928 485.26987178 -287.265625 480.03125 C-286.85794533 476.69152119 -286.26736863 473.398726 -285.640625 470.09375 C-285.46096191 469.13919922 -285.28129883 468.18464844 -285.09619141 467.20117188 C-276.45429118 422.39993301 -262.29250602 377.28178139 -229.578125 344.09375 C-229.04340576 343.54952393 -228.50868652 343.00529785 -227.95776367 342.44458008 C-225.31779594 339.8266563 -223.25103409 338.0235294 -219.9140625 336.2578125 C-217.13924518 334.36495943 -217.13924518 334.36495943 -216.74975586 331.99487305 C-216.55473303 329.42841415 -216.53099443 326.91707931 -216.578125 324.34375 C-216.61817193 316.70622788 -216.5152191 309.10801351 -211.546875 302.875 C-210.9590625 302.4315625 -210.37125 301.988125 -209.765625 301.53125 C-209.1778125 301.0671875 -208.59 300.603125 -207.984375 300.125 C-203.78007115 297.44953392 -199.24319033 297.81065369 -194.44140625 297.71484375 C-193.58000534 297.69406265 -192.71860443 297.67328156 -191.83110046 297.65187073 C-189.08018956 297.58650091 -186.32918344 297.52754868 -183.578125 297.46875 C-181.71288079 297.42555283 -179.8476462 297.38193815 -177.98242188 297.33789062 C-173.41025376 297.23083237 -168.8379899 297.12952946 -164.265625 297.03125 C-164.996604 296.24403564 -165.72758301 295.45682129 -166.48071289 294.64575195 C-171.4185478 289.30781443 -176.27769359 283.995791 -180.703125 278.21875 C-181.62149202 277.02664693 -182.5407959 275.83526512 -183.4609375 274.64453125 C-183.92145508 274.04721191 -184.38197266 273.44989258 -184.85644531 272.83447266 C-186.25873599 271.04006535 -187.68895127 269.27279933 -189.1328125 267.51171875 C-227.64336451 220.48966025 -227.64336451 220.48966025 -226.265625 198.03125 C-225.84213016 194.99014744 -225.1666721 192.06297369 -224.390625 189.09375 C-224.1750293 188.25457031 -223.95943359 187.41539062 -223.73730469 186.55078125 C-217.23639767 162.46174429 -206.81251162 139.42749751 -195.42578125 117.28955078 C-194.58849797 115.65973801 -193.75572047 114.02760774 -192.92578125 112.39404297 C-178.32316936 83.66864755 -161.31117545 55.71299364 -139.265625 32.03125 C-138.15720821 30.74322864 -137.05289995 29.45165799 -135.953125 28.15625 C-100.428444 -12.22374048 -48.20008204 -33.87032792 0 0 Z " fill="#CCCCCD" transform="translate(308.265625,16.96875)"/>
<path d="M0 0 C15.99167316 11.87952863 30.3782794 25.39091337 42.734375 41.03125 C43.36601562 41.79566406 43.99765625 42.56007812 44.6484375 43.34765625 C77.09023399 82.79848284 122.84608106 152.71874972 122.0703125 205.23828125 C119.02388504 230.5661375 92.28880511 258.43785753 76.30078125 277.03125 C73.10336771 280.76886583 69.99889155 284.57716575 66.90234375 288.3984375 C66.18691406 289.26726562 65.47148437 290.13609375 64.734375 291.03125 C64.39013489 291.61103104 64.04589478 292.19081207 63.69122314 292.78816223 C61.48872526 296.08487311 59.82280181 297.78028319 55.88667297 298.68786621 C52.25755955 298.94271046 48.68863248 298.97491532 45.05078125 298.92578125 C43.70848567 298.9279603 42.36619203 298.9323666 41.02391052 298.93888855 C38.21675183 298.9446805 35.41116155 298.92581187 32.60424805 298.88891602 C29.02139068 298.8434746 25.44157869 298.85600455 21.85865879 298.88672352 C19.08818785 298.90459733 16.31841943 298.89322866 13.54798698 298.87308311 C11.5899947 298.8634737 9.63193278 298.87679251 7.67396545 298.89057922 C-2.24565359 298.7077657 -2.24565359 298.7077657 -6.50878906 295.12060547 C-8.03204346 293.53536987 -8.03204346 293.53536987 -9.265625 292.03125 C-9.90113281 291.28488281 -10.53664063 290.53851563 -11.19140625 289.76953125 C-12.82426747 285.60721957 -12.58177751 281.64241693 -12.453125 277.21875 C-12.43958984 276.33509766 -12.42605469 275.45144531 -12.41210938 274.54101562 C-12.37691717 272.37082977 -12.32311485 270.20095967 -12.265625 268.03125 C-11.48082764 267.63969727 -11.48082764 267.63969727 -10.68017578 267.24023438 C-0.80502789 262.27767381 8.46205846 257.46686277 16.734375 250.03125 C17.71664062 249.25974609 17.71664062 249.25974609 18.71875 248.47265625 C33.73070636 236.43306725 43.62649551 217.95588125 49.734375 200.03125 C50.92933594 200.01707031 52.12429688 200.00289062 53.35546875 199.98828125 C64.61872935 199.80851363 64.61872935 199.80851363 75.0078125 195.87109375 C79.6679465 190.90520435 81.19587619 185.63594745 81.0859375 178.9296875 C81.03566406 177.74246094 81.03566406 177.74246094 80.984375 176.53125 C80.96632813 175.70882812 80.94828125 174.88640625 80.9296875 174.0390625 C80.8831033 172.03594196 80.81138199 170.03343179 80.734375 168.03125 C-0.86226878 136.09954124 -99.33807654 133.37831695 -181.4140625 165.96484375 C-184.265625 167.03125 -184.265625 167.03125 -186.265625 167.03125 C-186.20510084 170.03324825 -186.11786889 173.03061422 -186.015625 176.03125 C-186.00144531 176.87042969 -185.98726562 177.70960938 -185.97265625 178.57421875 C-185.71090189 185.32748112 -184.25347134 190.84736849 -179.5390625 195.87109375 C-171.76683546 200.36491227 -163.00900855 199.92749895 -154.265625 200.03125 C-154.00910156 200.70027344 -153.75257813 201.36929688 -153.48828125 202.05859375 C-147.90393521 216.06646512 -141.32345997 228.7233973 -131.265625 240.03125 C-130.61980469 240.8665625 -129.97398437 241.701875 -129.30859375 242.5625 C-120.40998103 253.31569931 -106.6558824 261.00538711 -94.265625 267.03125 C-94.18406063 269.88600306 -94.12486128 272.73838565 -94.078125 275.59375 C-94.05298828 276.39361328 -94.02785156 277.19347656 -94.00195312 278.01757812 C-93.9282237 284.0388142 -94.66312845 288.72390668 -98.52200317 293.62789917 C-104.07942241 299.19434323 -109.88446833 299.0133309 -117.43359375 299.07421875 C-118.70479568 299.09656082 -119.97599762 299.11890289 -121.28572083 299.141922 C-123.97244973 299.17662899 -126.65547668 299.19747067 -129.34204102 299.19799805 C-132.07659151 299.20197788 -134.80433123 299.25044653 -137.53735352 299.34155273 C-161.30691593 300.12199719 -161.30691593 300.12199719 -167.60986328 295.29492188 C-170.25158436 292.72655249 -172.29451194 289.94146825 -174.17781067 286.78433228 C-176.09366409 283.69681211 -178.4670838 280.96314723 -180.765625 278.15625 C-181.68027237 276.97742933 -182.59166629 275.7960548 -183.49609375 274.609375 C-185.33756728 272.21330373 -187.21286168 269.85248613 -189.12890625 267.515625 C-227.64388183 220.49809316 -227.64388183 220.49809316 -226.265625 198.03125 C-225.84213016 194.99014744 -225.1666721 192.06297369 -224.390625 189.09375 C-224.1750293 188.25457031 -223.95943359 187.41539062 -223.73730469 186.55078125 C-217.23639767 162.46174429 -206.81251162 139.42749751 -195.42578125 117.28955078 C-194.58849797 115.65973801 -193.75572047 114.02760774 -192.92578125 112.39404297 C-178.32316936 83.66864755 -161.31117545 55.71299364 -139.265625 32.03125 C-138.15720821 30.74322864 -137.05289995 29.45165799 -135.953125 28.15625 C-100.428444 -12.22374048 -48.20008204 -33.87032792 0 0 Z " fill="#1E608A" transform="translate(308.265625,16.96875)"/>
<path d="M0 0 C0 44.55 0 89.1 0 135 C107.58 135 215.16 135 326 135 C326 90.45 326 45.9 326 0 C332.34000196 2.53600079 336.09732708 6.35497506 341 11 C341.73476563 11.65871094 342.46953125 12.31742187 343.2265625 12.99609375 C376.82582512 44.33504234 389.55577148 96.407909 397 140 C397.19335938 141.09570312 397.38671875 142.19140625 397.5859375 143.3203125 C398.32543725 148.10613164 398.75338046 152.34973804 396.6875 156.875 C395 159 395 159 392 161 C389.46085763 161.19534246 387.03151618 161.2734504 384.49206734 161.26006222 C383.71682864 161.26386789 382.94158994 161.26767356 382.14285916 161.27159455 C379.52364996 161.28196872 376.90465514 161.27799351 374.28543091 161.27415466 C372.39724447 161.27860391 370.5090599 161.28391691 368.6208781 161.29002339 C363.41537412 161.30425135 358.20992971 161.30586577 353.00440907 161.30542648 C347.39693917 161.30707046 341.78949412 161.32012902 336.18203735 161.33161926 C323.91367586 161.35450017 311.64533163 161.36239305 299.37695169 161.36744571 C291.72153241 161.37069885 284.06611818 161.37721895 276.41070175 161.3844471 C255.22890677 161.4040163 234.04711662 161.42050017 212.86531258 161.42332363 C211.84872379 161.42346472 211.84872379 161.42346472 210.81159785 161.42360866 C208.06497239 161.42398715 205.31834693 161.42435115 202.57172147 161.42471164 C200.50435728 161.42498336 198.43699309 161.42526004 196.36962891 161.42553711 C195.68649341 161.42562513 195.00335791 161.42571315 194.29952133 161.42580384 C172.8300115 161.42870996 151.36059167 161.45081082 129.89111328 161.48706055 C105.78257212 161.52776491 81.67410883 161.55146243 57.56552494 161.55178314 C44.79586383 161.55236873 32.02631855 161.56092577 19.25668716 161.58978081 C8.38547974 161.61423251 -2.48556963 161.62161964 -13.35679708 161.60653328 C-18.90678331 161.59933915 -24.45645704 161.60032932 -30.00640869 161.62294388 C-35.08306459 161.64343235 -40.15916572 161.64102883 -45.23581494 161.62006903 C-47.07631759 161.61655465 -48.91685945 161.6215658 -50.75731061 161.63577347 C-53.2523495 161.65379917 -55.74540826 161.64124489 -58.24038506 161.62082577 C-58.96118266 161.63338914 -59.68198026 161.64595251 -60.42462021 161.6588966 C-64.3167134 161.59033627 -65.87847247 161.10037494 -68.92247593 158.58619839 C-72.29655181 154.38599212 -72.30161428 151.23862178 -72 146 C-71.59232033 142.66027119 -71.00174363 139.367476 -70.375 136.0625 C-70.19533691 135.10794922 -70.01567383 134.15339844 -69.83056641 133.16992188 C-61.18866618 88.36868301 -47.02688102 43.25053139 -14.3125 10.0625 C-13.77778076 9.51827393 -13.24306152 8.97404785 -12.69213867 8.41333008 C-4.20796502 0 -4.20796502 0 0 0 Z " fill="#9B9C9F" transform="translate(93,351)"/>
<path d="M0 0 C13.91495786 10.88996702 26.4413527 23.17166926 37.390625 37.03125 C38.33808594 38.17787109 38.33808594 38.17787109 39.3046875 39.34765625 C71.74648399 78.79848284 117.50233106 148.71874972 116.7265625 201.23828125 C113.68013504 226.5661375 86.94505511 254.43785753 70.95703125 273.03125 C67.75961771 276.76886583 64.65514155 280.57716575 61.55859375 284.3984375 C60.48544922 285.70167969 60.48544922 285.70167969 59.390625 287.03125 C59.04638489 287.61103104 58.70214478 288.19081207 58.34747314 288.78816223 C56.14497526 292.08487311 54.47905181 293.78028319 50.54292297 294.68786621 C46.91380955 294.94271046 43.34488248 294.97491532 39.70703125 294.92578125 C38.36473567 294.9279603 37.02244203 294.9323666 35.68016052 294.93888855 C32.87300183 294.9446805 30.06741155 294.92581187 27.26049805 294.88891602 C23.67764068 294.8434746 20.09782869 294.85600455 16.51490879 294.88672352 C13.74443785 294.90459733 10.97466943 294.89322866 8.20423698 294.87308311 C6.2462447 294.8634737 4.28818278 294.87679251 2.33021545 294.89057922 C-7.58940359 294.7077657 -7.58940359 294.7077657 -11.85253906 291.12060547 C-13.37579346 289.53536987 -13.37579346 289.53536987 -14.609375 288.03125 C-15.24488281 287.28488281 -15.88039063 286.53851563 -16.53515625 285.76953125 C-18.16801747 281.60721957 -17.92552751 277.64241693 -17.796875 273.21875 C-17.77657227 271.89327148 -17.77657227 271.89327148 -17.75585938 270.54101562 C-17.72066717 268.37082977 -17.66686485 266.20095967 -17.609375 264.03125 C-17.08617676 263.77021484 -16.56297852 263.50917969 -16.02392578 263.24023438 C-6.14877789 258.27767381 3.11830846 253.46686277 11.390625 246.03125 C12.37289062 245.25974609 12.37289062 245.25974609 13.375 244.47265625 C28.38695636 232.43306725 38.28274551 213.95588125 44.390625 196.03125 C45.58558594 196.01707031 46.78054688 196.00289062 48.01171875 195.98828125 C59.27497935 195.80851363 59.27497935 195.80851363 69.6640625 191.87109375 C74.3241965 186.90520435 75.85212619 181.63594745 75.7421875 174.9296875 C75.69191406 173.74246094 75.69191406 173.74246094 75.640625 172.53125 C75.62257813 171.70882812 75.60453125 170.88640625 75.5859375 170.0390625 C75.5393533 168.03594196 75.46763199 166.03343179 75.390625 164.03125 C74.78589355 163.85174805 74.18116211 163.67224609 73.55810547 163.48730469 C56.49630405 158.24103759 56.49630405 158.24103759 51.94140625 153.4609375 C50.43887223 150.36976435 49.41143684 147.31321494 48.390625 144.03125 C47.20795877 141.18817984 45.91818091 138.3952149 44.640625 135.59375 C43.95186174 134.03962174 43.26439358 132.48491896 42.578125 130.9296875 C35.38297854 114.76015998 27.46542474 99.2299924 18.390625 84.03125 C17.8656543 83.14904785 17.34068359 82.2668457 16.79980469 81.35791016 C2.83567654 58.0149534 -13.41607484 32.62947251 -34.40234375 14.93359375 C-35.98304942 13.57110939 -37.52345923 12.16132443 -39.03515625 10.72265625 C-51.37196576 -0.99274359 -65.7330049 -9.83067383 -81.609375 -15.96875 C-81.609375 -16.62875 -81.609375 -17.28875 -81.609375 -17.96875 C-53.33417955 -28.38592727 -22.79983712 -17.20227231 0 0 Z " fill="#135370" transform="translate(313.609375,20.96875)"/>
<path d="M0 0 C0.97753235 0.00126892 1.9550647 0.00253784 2.96221924 0.00384521 C111.83531036 0.27281036 111.83531036 0.27281036 136.75 25.1875 C136.93211752 28.05659727 137.0283968 30.87851094 137.0625 33.75 C137.09150391 34.53697266 137.12050781 35.32394531 137.15039062 36.13476562 C137.21290157 41.96751785 136.10869364 46.35942292 132.75 51.1875 C130.6796875 53.02734375 130.6796875 53.02734375 128.625 54.125 C127.94179688 54.50527344 127.25859375 54.88554687 126.5546875 55.27734375 C123.61153812 56.76165935 121.92610567 57.30845849 118.6171875 57.28515625 C117.81152344 57.28193359 117.00585938 57.27871094 116.17578125 57.27539062 C114.91314453 57.26282227 114.91314453 57.26282227 113.625 57.25 C112.35076172 57.24323242 112.35076172 57.24323242 111.05078125 57.23632812 C108.95049091 57.22452874 106.8502367 57.20659306 104.75 57.1875 C104.60224121 57.79062012 104.45448242 58.39374023 104.30224609 59.01513672 C100.86422487 72.53923614 93.58457211 84.5403174 84.75 95.1875 C84.06421875 96.03699219 83.3784375 96.88648438 82.671875 97.76171875 C72.26566969 110.03718687 59.25910855 118.47952173 44.75 125.1875 C44.09 125.1875 43.43 125.1875 42.75 125.1875 C42.75 130.4675 42.75 135.7475 42.75 141.1875 C42.42 141.1875 42.09 141.1875 41.75 141.1875 C41.75 136.2375 41.75 131.2875 41.75 126.1875 C40.24373047 126.69410156 40.24373047 126.69410156 38.70703125 127.2109375 C21.13597812 132.99948158 -3.79432893 138.1298834 -21.6328125 130.1171875 C-22.16648437 129.81039062 -22.70015625 129.50359375 -23.25 129.1875 C-22.24646484 128.80271484 -22.24646484 128.80271484 -21.22265625 128.41015625 C-8.45526331 123.32033651 4.38154326 117.34199156 14.75 108.1875 C15.55566406 107.51203125 16.36132812 106.8365625 17.19140625 106.140625 C32.39037972 93.05326464 42.44531492 76.10155524 48.75 57.1875 C47.615625 57.15011719 46.48125 57.11273438 45.3125 57.07421875 C27.10565935 56.34537982 27.10565935 56.34537982 21.76171875 51.31640625 C16.82284446 45.92224495 15.61008899 42.60278353 15.75 35.1875 C7.8978196 33.69184659 -1.54813325 32.77947218 -9.25 35.1875 C-9.37955078 36.14849609 -9.37955078 36.14849609 -9.51171875 37.12890625 C-10.46816622 43.01676175 -11.72557715 48.04743346 -16.25 52.1875 C-21.77478152 55.75711003 -26.79892688 55.65497295 -33.16015625 55.65625 C-34.7277494 55.66767029 -34.7277494 55.66767029 -36.32701111 55.67932129 C-38.5299135 55.69009841 -40.73286688 55.69298514 -42.93579102 55.68847656 C-46.30506241 55.68750215 -49.67207148 55.72919661 -53.04101562 55.7734375 C-55.18489109 55.77864324 -57.32877446 55.78133271 -59.47265625 55.78125 C-60.4779689 55.79764526 -61.48328156 55.81404053 -62.51905823 55.83093262 C-67.18525247 55.78480163 -69.52184052 55.71119339 -73.39306641 52.92700195 C-75.26986805 50.15818901 -75.85596993 49.03346411 -75.73828125 45.76171875 C-75.72579346 45.04330811 -75.71330566 44.32489746 -75.70043945 43.5847168 C-75.65491943 42.69051025 -75.60939941 41.79630371 -75.5625 40.875 C-75.459375 38.008125 -75.35625 35.14125 -75.25 32.1875 C-84.49 32.1875 -93.73 32.1875 -103.25 32.1875 C-102.775625 35.19875 -102.30125 38.21 -101.8125 41.3125 C-101.66498291 42.24980957 -101.51746582 43.18711914 -101.36547852 44.15283203 C-100.67966367 48.50111117 -99.98292983 52.84684762 -99.25 57.1875 C-118.21247359 58.10800843 -118.21247359 58.10800843 -124.6171875 53.6875 C-128.32914253 50.27747433 -131.08084165 46.29382934 -131.36352539 41.1027832 C-131.35828857 40.32249756 -131.35305176 39.54221191 -131.34765625 38.73828125 C-131.34443359 37.89072266 -131.34121094 37.04316406 -131.33789062 36.16992188 C-131.32951172 35.28884766 -131.32113281 34.40777344 -131.3125 33.5 C-131.30798828 32.60732422 -131.30347656 31.71464844 -131.29882812 30.79492188 C-131.28704983 28.59238013 -131.27060164 26.38997401 -131.25 24.1875 C-116.19595928 18.05881782 -101.00401759 13.18211606 -85.25 9.1875 C-84.43917969 8.98141113 -83.62835938 8.77532227 -82.79296875 8.56298828 C-55.83196967 1.89840626 -27.67456407 -0.03696592 0 0 Z " fill="#F4CF9F" transform="translate(253.25,159.8125)"/>
<path d="M0 0 C9.24 0 18.48 0 28 0 C28.25 8.75 28.25 8.75 28.29785156 11.48730469 C28.3284668 12.20821289 28.35908203 12.92912109 28.390625 13.671875 C28.41157227 14.4050293 28.43251953 15.13818359 28.45410156 15.89355469 C29.29160338 19.12520303 30.19872909 20.12051148 33 22 C36.54609233 22.60142811 40.05496671 22.56010274 43.64453125 22.53125 C45.20925423 22.53699036 45.20925423 22.53699036 46.80558777 22.54284668 C49.0120846 22.54556763 51.21861359 22.53819371 53.42504883 22.52148438 C56.78996487 22.50014293 60.15272995 22.52124745 63.51757812 22.546875 C65.66406719 22.54423049 67.81055492 22.53910297 69.95703125 22.53125 C70.95829544 22.53934692 71.95955963 22.54744385 72.99116516 22.55578613 C79.19378716 22.47325107 82.92907712 21.63986489 88 18 C91.49810437 13.64979329 92.5459709 8.44834922 93 3 C99.96480772 -0.31156895 109.0094461 -0.11306874 116.375 2 C117.24125 2.33 118.1075 2.66 119 3 C119.11214844 3.96099609 119.11214844 3.96099609 119.2265625 4.94140625 C120.06969269 10.48788033 121.33724574 14.24641334 124.9765625 18.52734375 C130.93904833 22.86683633 137.37370413 23.48438896 144.5 23.6875 C145.73363281 23.73874023 145.73363281 23.73874023 146.9921875 23.79101562 C148.9943455 23.8724988 150.99714568 23.93794575 153 24 C148.5391205 37.91880191 142.67796437 50.87447685 133 62 C132.33484375 62.79664063 131.6696875 63.59328125 130.984375 64.4140625 C117.81722387 79.71258701 100.43312572 91.22258425 81 97 C101.08920331 102.47887363 122.49552926 101.06196354 142 94 C142.99 94 143.98 94 145 94 C145.03867187 95.485 145.03867187 95.485 145.078125 97 C145.43466184 108.8345338 145.43466184 108.8345338 151.59765625 118.55078125 C153.02562805 119.7491973 154.50862651 120.88146988 156 122 C156 122.33 156 122.66 156 123 C122.67 123 89.34 123 55 123 C56.98 120.69 58.96 118.38 61 116 C63.32428776 111.03880098 63.41859658 106.01728929 63.625 100.625 C63.68300781 99.37783203 63.68300781 99.37783203 63.7421875 98.10546875 C63.83574246 96.07064844 63.91892713 94.03535584 64 92 C63.15953125 91.75378906 62.3190625 91.50757813 61.453125 91.25390625 C57.62095343 89.86235979 54.2264964 88.03432065 50.75 85.9375 C50.09467285 85.54336914 49.4393457 85.14923828 48.76416016 84.74316406 C42.90197991 81.11686566 37.89289096 76.85466525 33 72 C31.700625 70.7625 31.700625 70.7625 30.375 69.5 C29.199375 68.2625 29.199375 68.2625 28 67 C27.40832031 66.3915625 26.81664062 65.783125 26.20703125 65.15625 C10.14320409 48.0049297 0 23.45534366 0 0 Z " fill="#FDD8A7" transform="translate(150,192)"/>
<path d="M0 0 C0.01417969 1.03898438 0.02835938 2.07796875 0.04296875 3.1484375 C0.30097401 12.41327298 0.72888857 20.78947606 7.69921875 27.6796875 C14.92435105 32.70463217 24.54754815 31.89970122 33 32 C33.25652344 32.66902344 33.51304687 33.33804688 33.77734375 34.02734375 C39.36168979 48.03521512 45.94216503 60.6921473 56 72 C56.64582031 72.8353125 57.29164063 73.670625 57.95703125 74.53125 C66.85564397 85.28444931 80.6097426 92.97413711 93 99 C93.08156437 101.85475306 93.14076372 104.70713565 93.1875 107.5625 C93.21263672 108.36236328 93.23777344 109.16222656 93.26367188 109.98632812 C93.3374013 116.0075642 92.60249655 120.69265668 88.74362183 125.59664917 C83.18620259 131.16309323 77.38115667 130.9820809 69.83203125 131.04296875 C68.56082932 131.06531082 67.28962738 131.08765289 65.97990417 131.110672 C63.29317527 131.14537899 60.61014832 131.16622067 57.92358398 131.16674805 C55.18903349 131.17072788 52.46129377 131.21919653 49.72827148 131.31030273 C25.95870907 132.09074719 25.95870907 132.09074719 19.65576172 127.26367188 C17.01404064 124.69530249 14.97111306 121.91021825 13.08781433 118.75308228 C11.17196091 115.66556211 8.7985412 112.93189723 6.5 110.125 C5.58535263 108.94617933 4.67395871 107.7648048 3.76953125 106.578125 C1.92805772 104.18205373 0.05276332 101.82123613 -1.86328125 99.484375 C-40.69156839 52.08436503 -40.69156839 52.08436503 -39 30 C-38.34 30 -37.68 30 -37 30 C-36.76667969 29.11957031 -36.53335938 28.23914063 -36.29296875 27.33203125 C-32.41050051 17.32675812 -11.20400041 0 0 0 Z " fill="#135370" transform="translate(121,185)"/>
<path d="M0 0 C0 44.55 0 89.1 0 135 C-4.95 135.33 -9.9 135.66 -15 136 C-19.81375192 139.27828869 -19.81375192 139.27828869 -21 142 C-21.88029519 150.04880937 -21.88029519 150.04880937 -18.6875 157.125 C-16.80610181 158.43760339 -14.90875072 159.72749952 -13 161 C-20.45627684 161.12680254 -27.91227555 161.21435293 -35.36938477 161.2746582 C-37.9059488 161.29979839 -40.44244042 161.33391537 -42.97875977 161.37719727 C-46.62534451 161.43786661 -50.27097132 161.46621574 -53.91796875 161.48828125 C-55.05147263 161.51408768 -56.1849765 161.5398941 -57.35282898 161.56648254 C-65.24442966 161.56929224 -65.24442966 161.56929224 -69.19262695 158.59448242 C-73.50826794 152.39938358 -72.14774664 145.84532953 -70.88427734 138.74804688 C-70.71621582 137.86181641 -70.5481543 136.97558594 -70.375 136.0625 C-70.19533691 135.10794922 -70.01567383 134.15339844 -69.83056641 133.16992188 C-61.18866618 88.36868301 -47.02688102 43.25053139 -14.3125 10.0625 C-13.77778076 9.51827393 -13.24306152 8.97404785 -12.69213867 8.41333008 C-4.20796502 0 -4.20796502 0 0 0 Z " fill="#1E608B" transform="translate(93,351)"/>
<path d="M0 0 C6.34000196 2.53600079 10.09732708 6.35497506 15 11 C16.10214844 11.98806641 16.10214844 11.98806641 17.2265625 12.99609375 C50.82582512 44.33504234 63.55577148 96.407909 71 140 C71.19335938 141.09570312 71.38671875 142.19140625 71.5859375 143.3203125 C72.32543725 148.10613164 72.75338046 152.34973804 70.6875 156.875 C69 159 69 159 66 161 C63.66511536 161.24050903 63.66511536 161.24050903 60.88598633 161.22705078 C59.84513382 161.22689972 58.80428131 161.22674866 57.73188782 161.22659302 C56.60993515 161.21627045 55.48798248 161.20594788 54.33203125 161.1953125 C52.60710701 161.19106766 52.60710701 161.19106766 50.84733582 161.18673706 C47.16895204 161.17552833 43.49081038 161.15042224 39.8125 161.125 C37.32096705 161.11497111 34.8294303 161.1058451 32.33789062 161.09765625 C26.22517759 161.07558673 20.11260609 161.04210224 14 161 C14.78632813 160.39414062 15.57265625 159.78828125 16.3828125 159.1640625 C19.53626977 156.55657694 20.70284911 154.89145267 22 151 C22.19049886 147.5093886 22.09726549 144.32872368 21 141 C15.26911832 134.24588396 15.26911832 134.24588396 0 134 C0 89.78 0 45.56 0 0 Z " fill="#135370" transform="translate(419,351)"/>
<path d="M0 0 C1.08477631 -0.01591187 2.16955261 -0.03182373 3.28720093 -0.04821777 C5.04503403 -0.0485199 5.04503403 -0.0485199 6.83837891 -0.04882812 C8.6453978 -0.06024841 8.6453978 -0.06024841 10.48892212 -0.07189941 C13.03930588 -0.08271356 15.58973398 -0.08554822 18.14013672 -0.08105469 C22.04290747 -0.08008361 25.9437053 -0.12166919 29.84619141 -0.16601562 C32.3227498 -0.17122332 34.79931504 -0.17391081 37.27587891 -0.17382812 C38.44371918 -0.19022339 39.61155945 -0.20661865 40.81478882 -0.22351074 C49.8341675 -0.14658782 49.8341675 -0.14658782 52.96582031 2.83203125 C54.68994141 5.41992188 54.68994141 5.41992188 54.68994141 7.41992188 C55.67994141 7.17628906 55.67994141 7.17628906 56.68994141 6.92773438 C60.36949356 6.30489352 63.97122002 6.27433855 67.68994141 6.29492188 C68.38861328 6.29105469 69.08728516 6.2871875 69.80712891 6.28320312 C73.56068439 6.29028531 77.04145285 6.52205165 80.68994141 7.41992188 C80.95806641 6.63617188 81.22619141 5.85242188 81.50244141 5.04492188 C82.68994141 2.41992188 82.68994141 2.41992188 85.68994141 0.41992188 C88.11853027 0.16595459 88.11853027 0.16595459 91.03173828 0.16113281 C92.66858582 0.15167633 92.66858582 0.15167633 94.33850098 0.14202881 C96.10574524 0.1481015 96.10574524 0.1481015 97.90869141 0.15429688 C99.11811401 0.15238342 100.32753662 0.15046997 101.5736084 0.14849854 C104.13240771 0.14713664 106.69121393 0.15083338 109.25 0.15917969 C113.17414826 0.16987882 117.09783869 0.15928421 121.02197266 0.14648438 C123.50504659 0.14780597 125.98812023 0.15036836 128.47119141 0.15429688 C129.64935425 0.15024841 130.82751709 0.14619995 132.04138184 0.14202881 C133.67822937 0.15148529 133.67822937 0.15148529 135.34814453 0.16113281 C136.30950317 0.162724 137.27086182 0.16431519 138.26135254 0.16595459 C140.68994141 0.41992188 140.68994141 0.41992188 143.68994141 2.41992188 C143.68994141 3.07992187 143.68994141 3.73992187 143.68994141 4.41992188 C153.58994141 4.41992188 163.48994141 4.41992188 173.68994141 4.41992188 C173.68994141 8.04992187 173.68994141 11.67992187 173.68994141 15.41992188 C164.44994141 15.41992188 155.20994141 15.41992188 145.68994141 15.41992188 C145.80801917 20.78990057 145.80801917 20.78990057 145.96020508 26.15893555 C146.01115993 30.76843239 145.60842399 33.63398099 142.68994141 37.41992188 C141.08990731 39.01995597 139.38989722 38.57126066 137.17358398 38.59692383 C135.73122124 38.61617668 135.73122124 38.61617668 134.25971985 38.63581848 C132.68797249 38.64689888 132.68797249 38.64689888 131.08447266 38.65820312 C130.01251144 38.66627487 128.94055023 38.67434662 127.83610535 38.68266296 C125.56043119 38.69652547 123.28473605 38.70723788 121.0090332 38.71508789 C117.53442615 38.73226377 114.06077935 38.77612712 110.58642578 38.8203125 C108.37744842 38.83044216 106.16846295 38.83895741 103.95947266 38.84570312 C102.40290703 38.87196526 102.40290703 38.87196526 100.81489563 38.89875793 C93.68166518 38.87740525 90.20680292 37.83654031 85.04541016 32.82226562 C81.06963103 27.83592057 80.57093873 24.72706368 80.68994141 18.41992188 C72.83776101 16.92426847 63.39180815 16.01189406 55.68994141 18.41992188 C55.56039062 19.38091797 55.56039062 19.38091797 55.42822266 20.36132812 C54.47177519 26.24918362 53.21436426 31.27985533 48.68994141 35.41992188 C43.16515988 38.9895319 38.14101453 38.88739482 31.77978516 38.88867188 C30.212192 38.90009216 30.212192 38.90009216 28.6129303 38.91174316 C26.41002791 38.92252028 24.20707453 38.92540702 22.00415039 38.92089844 C18.634879 38.91992403 15.26786992 38.96161848 11.89892578 39.00585938 C9.75505031 39.01106512 7.61116694 39.01375459 5.46728516 39.01367188 C4.4619725 39.03006714 3.45665985 39.0464624 2.42088318 39.06335449 C-2.24531106 39.01722351 -4.58189911 38.94361526 -8.453125 36.15942383 C-10.32992665 33.39061088 -10.91602853 32.26588598 -10.79833984 28.99414062 C-10.78585205 28.27572998 -10.77336426 27.55731934 -10.76049805 26.81713867 C-10.71497803 25.92293213 -10.66945801 25.02872559 -10.62255859 24.10742188 C-10.51943359 21.24054688 -10.41630859 18.37367188 -10.31005859 15.41992188 C-19.55005859 15.41992188 -28.79005859 15.41992188 -38.31005859 15.41992188 C-38.31005859 11.78992188 -38.31005859 8.15992188 -38.31005859 4.41992188 C-37.41697998 4.40533936 -36.52390137 4.39075684 -35.60375977 4.37573242 C-32.28788582 4.3146511 -28.9728396 4.24049709 -25.6574707 4.1574707 C-24.22301231 4.12423187 -22.78842347 4.09619653 -21.35375977 4.07348633 C-19.29045053 4.03991916 -17.22833557 3.98760774 -15.16552734 3.93164062 C-13.30383911 3.8923645 -13.30383911 3.8923645 -11.40454102 3.85229492 C-8.32548551 3.7588769 -8.32548551 3.7588769 -6.9485321 1.91914368 C-4.64883702 -0.18510334 -3.08390741 0.02717815 0 0 Z " fill="#353535" transform="translate(188.31005859375,176.580078125)"/>
<path d="M0 0 C1.20589595 0.72004944 2.39597549 1.46777445 3.5625 2.25 C4.449375 2.806875 5.33625 3.36375 6.25 3.9375 C11.55302414 9.24052414 13.87859835 14.26377507 14.0625 21.8125 C13.67769837 30.28800253 11.91446645 35.89846051 5.57421875 41.70703125 C-0.0259153 46.0022797 -5.81075767 48.03220732 -12.890625 47.69140625 C-20.6055038 46.35431836 -26.0731226 42.25108604 -31.0625 36.41015625 C-35.19502318 29.91786842 -35.2855335 22.69484145 -34.4375 15.25 C-32.22392887 8.31071191 -27.65507801 3.84159336 -21.4375 0.25 C-14.79073611 -2.91564369 -6.69921522 -3.23498226 0 0 Z " fill="#FEFEFE" transform="translate(266.4375,384.75)"/>
<path d="M0 0 C0.91096436 -0.00999023 1.82192871 -0.01998047 2.76049805 -0.03027344 C7.23381349 0.22836767 10.73515892 1.51328982 13.8046875 4.9140625 C16.17617011 8.71113722 16.28026995 12.70691766 16.17578125 17.109375 C14.8188475 21.41963516 12.93318792 23.84272395 9.11444092 26.2845459 C5.05181972 28.0130433 0.64845313 27.58985761 -3.69140625 27.5 C-5.24349289 27.49151031 -5.24349289 27.49151031 -6.82693481 27.48284912 C-10.11817504 27.46053352 -13.40830989 27.41034466 -16.69921875 27.359375 C-18.93618215 27.33930384 -21.17316268 27.32105415 -23.41015625 27.3046875 C-28.88227454 27.26409315 -34.35201554 27.18579056 -39.82421875 27.109375 C-39.82421875 18.529375 -39.82421875 9.949375 -39.82421875 1.109375 C-35.34428291 0.96519316 -30.8643388 0.82222017 -26.38427734 0.68212891 C-24.86570122 0.63430226 -23.3471456 0.58581903 -21.82861328 0.53662109 C-14.55380945 0.30133041 -7.27845565 0.07747159 0 0 Z " fill="#8C8E92" transform="translate(425.82421875,484.890625)"/>
<path d="M0 0 C-0.01571045 0.68400879 -0.0314209 1.36801758 -0.04760742 2.07275391 C-0.4971783 19.45768519 -0.4971783 19.45768519 2.34375 36.5234375 C3 39 3 39 3 42 C-15.96247359 42.92050843 -15.96247359 42.92050843 -22.3671875 38.5 C-26.07914253 35.08997433 -28.83084165 31.10632934 -29.11352539 25.9152832 C-29.10828857 25.13499756 -29.10305176 24.35471191 -29.09765625 23.55078125 C-29.09443359 22.70322266 -29.09121094 21.85566406 -29.08789062 20.98242188 C-29.07951172 20.10134766 -29.07113281 19.22027344 -29.0625 18.3125 C-29.05798828 17.41982422 -29.05347656 16.52714844 -29.04882812 15.60742188 C-29.03704983 13.40488013 -29.02060164 11.20247401 -29 9 C-25.62579827 7.70624133 -22.25049917 6.41536939 -18.875 5.125 C-17.92367187 4.76019531 -16.97234375 4.39539063 -15.9921875 4.01953125 C-2.36817175 -1.18408588 -2.36817175 -1.18408588 0 0 Z " fill="#F0C591" transform="translate(151,175)"/>
<path d="M0 0 C19.02428365 2.28291404 37.54558738 5.82324707 56 11 C56 13.31 56 15.62 56 18 C45.77 18 35.54 18 25 18 C25 17.34 25 16.68 25 16 C22.0804957 15.0268319 19.94555049 14.8070454 16.89453125 14.68359375 C15.91162109 14.64169922 14.92871094 14.59980469 13.91601562 14.55664062 C12.89185547 14.51732422 11.86769531 14.47800781 10.8125 14.4375 C9.77673828 14.39431641 8.74097656 14.35113281 7.67382812 14.30664062 C5.11604298 14.20055737 2.55803902 14.09977414 0 14 C0 9.38 0 4.76 0 0 Z " fill="#F0CC9E" transform="translate(307,163)"/>
<path d="M0 0 C1.65 0 3.3 0 5 0 C4.67 12.54 4.34 25.08 4 38 C-2 37 -2 37 -3.86328125 35.515625 C-5.61411873 31.64091937 -5.31424839 27.94204424 -5.1875 23.75 C-5.125625 20.8625 -5.06375 17.975 -5 15 C-14.24 15 -23.48 15 -33 15 C-33 11.37 -33 7.74 -33 4 C-32.10692139 3.98541748 -31.21384277 3.97083496 -30.29370117 3.95581055 C-26.97782722 3.89472923 -23.66278101 3.82057522 -20.34741211 3.73754883 C-18.91295372 3.70430999 -17.47836487 3.67627465 -16.04370117 3.65356445 C-13.98039193 3.61999729 -11.91827697 3.56768587 -9.85546875 3.51171875 C-7.99378052 3.47244263 -7.99378052 3.47244263 -6.09448242 3.43237305 C-2.64954367 2.95103289 -2.25801042 2.39502851 0 0 Z " fill="#52514F" transform="translate(183,177)"/>
<path d="M0 0 C0 11.88 0 23.76 0 36 C-8.11158798 29.0472103 -8.11158798 29.0472103 -9 25 C-9.07646165 22.6679198 -9.09143299 20.33154122 -9 18 C-17.54009325 16.37331557 -26.4913963 16.29827926 -35 18 C-35 14.37 -35 10.74 -35 7 C-30.53988262 6.10797652 -26.50495337 5.85006483 -22 5.875 C-21.30132812 5.87113281 -20.60265625 5.86726562 -19.8828125 5.86328125 C-16.12925702 5.87036343 -12.64848855 6.10212977 -9 7 C-8.731875 6.21625 -8.46375 5.4325 -8.1875 4.625 C-6.25892178 0.36182709 -4.58919222 0 0 0 Z " fill="#4F4E4E" transform="translate(278,177)"/>
<path d="M0 0 C0.33 0 0.66 0 1 0 C0.99920441 1.06392471 0.99840881 2.12784943 0.99758911 3.22401428 C0.993953 13.3564958 1.02230313 23.48847597 1.0802784 33.62079716 C1.10908686 38.82731392 1.12745159 44.03338899 1.12011719 49.23999023 C0.69085549 79.94458376 0.69085549 79.94458376 7.2593689 109.71487427 C8.64028943 113.9755339 9.48109804 118.36609612 10.375 122.75 C10.54160126 123.54027084 10.70820251 124.33054169 10.87985229 125.14476013 C11.49866071 128.14951077 12 130.92379943 12 134 C8.04 134 4.08 134 0 134 C0 89.78 0 45.56 0 0 Z " fill="#266389" transform="translate(419,351)"/>
<path d="M0 0 C9.57 0 19.14 0 29 0 C29 3.63 29 7.26 29 11 C19.76 11 10.52 11 1 11 C0.67 7.37 0.34 3.74 0 0 Z " fill="#535250" transform="translate(333,181)"/>
</svg>
